Coordinates
version=1
nRows=9
nColumns=24
inDegrees=yes

Units are S.I. units (second, meters, Newtons, ...)
Angles are in degrees.

endheader
time	pelvis_tilt	pelvis_list	pelvis_rotation	pelvis_tx	pelvis_ty	pelvis_tz	hip_flexion_r	hip_adduction_r	hip_rotation_r	knee_angle_r	ankle_angle_r	subtalar_angle_r	mtp_angle_r	hip_flexion_l	hip_adduction_l	hip_rotation_l	knee_angle_l	ankle_angle_l	subtalar_angle_l	mtp_angle_l	lumbar_extension	lumbar_bending	lumbar_rotation
      0.86700000	      1.85226431	      1.96308311	     -3.30135184	     -0.11663853	      0.90182387	      0.33052917	    -19.70365573	      1.20965896	     -3.15589262	     -7.42343636	     17.83141238	      9.38860972	      6.81152836	     22.99177104	      1.53401168	    -10.33628156	    -12.89236681	      4.27100968	     -4.58503869	      2.83376811	    -11.89911494	     -2.64026475	      9.63899036
      0.87116667	      1.70294488	      1.96849727	     -3.43270066	     -0.11081231	      0.90026983	      0.33049820	    -19.69540223	      1.11622988	     -3.01382332	     -7.94991322	     18.00026625	      9.40865066	      6.96259733	     23.17997742	      1.56069567	    -10.07506081	    -12.71281543	      4.22519521	     -4.57005000	      2.86090062	    -11.68186913	     -2.70842996	      9.83633735
      0.87533333	      1.61771197	      2.02207193	     -3.55848194	     -0.10492690	      0.89883320	      0.33045547	    -19.74625513	      0.96548344	     -2.91381625	     -8.50761843	     18.22885684	      9.52455262	      7.10720067	     23.28497241	      1.64786313	     -9.80174636	    -12.61901857	      4.13976097	     -4.64530930	      2.88849777	    -11.56435576	     -2.86341153	      9.93651403
      0.87950000	      1.51662928	      2.07290991	     -3.67175046	     -0.09902418	      0.89741321	      0.33036155	    -19.73695716	      0.81154916	     -2.88652790	     -9.15217259	     18.42614994	      9.74214485	      7.30863901	     23.39915132	      1.74407679	     -9.47077077	    -12.61483936	      4.03062951	     -4.82325524	      2.93048119	    -11.40580351	     -2.98845450	     10.04223576
      0.88366667	      1.43128974	      2.13917824	     -3.77681000	     -0.09308612	      0.89605514	      0.33025959	    -19.72597424	      0.64189652	     -2.85661107	     -9.83898808	     18.60323968	      9.92601234	      7.51979134	     23.50048687	      1.85634041	     -9.16368193	    -12.72593525	      3.90684419	     -5.00526326	      2.97775207	    -11.26387774	     -3.13995268	     10.10406473
      0.88783333	      1.33863180	      2.21025636	     -3.87263444	     -0.08713823	      0.89473323	      0.33012048	    -19.66765921	      0.46215501	     -2.86027440	    -10.60484263	     18.74159333	     10.14785700	      7.76269086	     23.61462619	      1.97852866	     -8.85316585	    -12.94421335	      3.76260265	     -5.23511207	      3.03584459	    -11.11489600	     -3.29370090	     10.15612087
      0.89200000	      1.28334339	      2.31278989	     -3.93945568	     -0.08111873	      0.89352039	      0.32991896	    -19.63582700	      0.24600292	     -2.96265496	    -11.39352855	     18.70136578	     10.37008800	     11.47962068	     23.66432907	      2.15779075	     -8.49953400	    -13.19519386	      3.50824982	     -5.60675615	      3.99612202	    -10.99668427	     -3.47669969	     10.13052893
      0.89616667	      1.19173328	      2.37765441	     -4.02004895	     -0.07515552	      0.89228371	      0.32975566	    -19.51870046	      0.07293159	     -2.93594073	    -12.28414957	     18.81104117	     10.55754909	     11.53613144	     23.81357300	      2.26562456	     -8.28027866	    -13.67271019	      3.41434939	     -5.79844444	      4.01642864	    -10.85636711	     -3.62682594	     10.17393372
      0.90033333	      1.09899150	      2.47700371	     -4.08128261	     -0.06914166	      0.89110821	      0.32952030	    -19.36140599	     -0.14673658	     -3.01409263	    -13.25229846	     18.84447452	     10.84886371	     11.64350131	     23.94552746	      2.43015683	     -8.01658106	    -14.17865755	      3.22352064	     -6.11293026	      4.04783515	    -10.69898586	     -3.80731224	     10.17316058
